# xmcd CD database file
#
# Track frame offsets:
#	150
#	30827
#	52765
#	69543
#	88886
#	110225
#	134353
#	151498
#	185150
#
# Disc length: 3302 seconds
#
# Revision: 0
# Processed by: cddbd v1.5.2PL0 Copyright (c) Steve Scherf et al.
# Submitted via: CDex 1.70beta2
#
DISCID=790ce409
DTITLE=Solrize - March Of The Maraboo
DYEAR=2009
DGENRE=Salsa
TTITLE0=Desert Son
TTITLE1=Blood Omen
TTITLE2=Facts Of Life
TTITLE3=Master Of Disaster
TTITLE4=Stormlord
TTITLE5=Gogogasmo
TTITLE6=Lust For Dust
TTITLE7=Inner Temptation
TTITLE8=Ride The Shit
EXTD=YEAR: 2009
EXTT0=
EXTT1=
EXTT2=
EXTT3=
EXTT4=
EXTT5=
EXTT6=
EXTT7=
EXTT8=
PLAYORDER=
